<?xml version="1.0" encoding="UTF-8"?>
<svg id="Layer_1" data-name="Layer 1" xmlns="http://www.w3.org/2000/svg" viewBox="0 0 75.14 74.13">
  <defs>
    <style>
      .cls-1 {
        fill: #5c84eb;
      }
    </style>
  </defs>
  <path class="cls-1" d="M20.7,19.83s-1.55,1.38-.59,3.87,18.65,45.89,18.65,45.89c0,0,2.43,3.59,5.04,0l4.38-12.94,16.25,16.49s.99,2.24,3.38,0l6.68-6.69s1.68-.98-.4-3c-2.08-2.02-16.06-15.63-16.06-15.63l12.24-5.06s3.74-1.9,0-4.61c-3.74-2.71-46.93-18.66-46.93-18.66,0,0-1.69-.66-2.66,.34Z"/>
  <g>
    <rect class="cls-1" x="31.59" y="10.02" width="12.82" height="5.22" rx="1.01" ry="1.01" transform="translate(2.2 30.57) rotate(-45)"/>
    <rect class="cls-1" x="19.3" y="3.8" width="12.82" height="5.22" rx="1.01" ry="1.01" transform="translate(19.3 32.12) rotate(-90)"/>
    <rect class="cls-1" x="6.21" y="8.1" width="12.82" height="5.22" rx="1.01" ry="1.01" transform="translate(13.98 27.21) rotate(-135)"/>
    <rect class="cls-1" x="0" y="20.39" width="12.82" height="5.22" rx="1.01" ry="1.01" transform="translate(12.82 46) rotate(-180)"/>
    <rect class="cls-1" x="4.3" y="33.48" width="12.82" height="5.22" rx="1.01" ry="1.01" transform="translate(43.8 54.03) rotate(135)"/>
  </g>
</svg>